<svg width="240" height="70" viewBox="0 0 240 70" fill="none" xmlns="http://www.w3.org/2000/svg">
<g clip-path="url(#clip0_2047_522)">
<path d="M83.864 50V41.456H84.68V49.124L89.528 41.456H90.584V50H89.768V42.332L84.92 50H83.864ZM101.341 51.968H100.585V50H95.6171V51.968H94.8611V49.364H95.5931C96.1611 48.316 96.4451 46.736 96.4451 44.624V43.832H100.477V49.364H101.341V51.968ZM99.7211 49.364V44.468H97.1771V44.876C97.1771 46.812 96.9091 48.308 96.3731 49.364H99.7211ZM102.897 43.832V45.02C103.345 44.108 104.081 43.652 105.105 43.652C105.945 43.652 106.617 43.952 107.121 44.552C107.633 45.152 107.889 45.948 107.889 46.94C107.889 47.916 107.637 48.704 107.133 49.304C106.629 49.896 105.961 50.192 105.129 50.192C104.089 50.192 103.361 49.748 102.945 48.86V52.304H102.213V43.832H102.897ZM106.545 45.008C106.169 44.52 105.657 44.276 105.009 44.276C104.361 44.276 103.849 44.512 103.473 44.984C103.105 45.456 102.921 46.104 102.921 46.928C102.921 47.736 103.109 48.376 103.485 48.848C103.869 49.32 104.385 49.556 105.033 49.556C105.665 49.556 106.169 49.32 106.545 48.848C106.929 48.368 107.121 47.732 107.121 46.94C107.121 46.132 106.929 45.488 106.545 45.008ZM113.727 43.832L111.303 50.228C110.999 51.044 110.735 51.6 110.511 51.896C110.287 52.192 109.943 52.34 109.479 52.34C109.279 52.34 109.059 52.32 108.819 52.28V51.62C109.043 51.676 109.223 51.704 109.359 51.704C109.663 51.704 109.891 51.592 110.043 51.368C110.203 51.144 110.383 50.756 110.583 50.204C110.591 50.172 110.599 50.148 110.607 50.132C110.615 50.124 110.623 50.108 110.631 50.084C110.639 50.06 110.647 50.036 110.655 50.012C110.663 49.996 110.671 49.976 110.679 49.952L108.195 43.832H109.023L110.691 48.08C110.755 48.248 110.879 48.612 111.063 49.172C111.271 48.492 111.395 48.1 111.435 47.996L112.959 43.832H113.727ZM118.634 44.468H115.298V50H114.542V43.832H118.634V44.468ZM124.382 49.388V49.964C124.198 50.028 123.998 50.06 123.782 50.06C123.454 50.06 123.238 49.96 123.134 49.76C123.03 49.56 122.978 49.284 122.978 48.932C122.458 49.756 121.682 50.168 120.65 50.168C120.018 50.168 119.522 50.016 119.162 49.712C118.81 49.408 118.634 48.984 118.634 48.44C118.634 47.328 119.398 46.692 120.926 46.532C121.006 46.524 121.118 46.516 121.262 46.508C121.406 46.492 121.51 46.48 121.574 46.472C121.646 46.464 121.734 46.456 121.838 46.448C121.95 46.432 122.03 46.42 122.078 46.412C122.134 46.404 122.198 46.392 122.27 46.376C122.35 46.36 122.41 46.344 122.45 46.328C122.498 46.312 122.546 46.296 122.594 46.28C122.642 46.256 122.686 46.232 122.726 46.208C122.87 46.112 122.942 45.916 122.942 45.62C122.942 45.132 122.806 44.788 122.534 44.588C122.262 44.388 121.862 44.288 121.334 44.288C120.814 44.288 120.414 44.408 120.134 44.648C119.862 44.88 119.702 45.244 119.654 45.74H118.934C118.966 45.076 119.198 44.564 119.63 44.204C120.062 43.844 120.658 43.664 121.418 43.664C122.122 43.664 122.674 43.816 123.074 44.12C123.482 44.424 123.686 44.864 123.686 45.44V48.8C123.686 48.96 123.69 49.076 123.698 49.148C123.706 49.212 123.738 49.276 123.794 49.34C123.858 49.396 123.958 49.424 124.094 49.424C124.198 49.424 124.294 49.412 124.382 49.388ZM122.942 46.64C122.87 46.72 122.75 46.788 122.582 46.844C122.422 46.892 122.274 46.928 122.138 46.952C122.002 46.976 121.77 47.008 121.442 47.048C121.362 47.056 121.302 47.064 121.262 47.072C121.006 47.104 120.794 47.14 120.626 47.18C120.466 47.22 120.278 47.288 120.062 47.384C119.854 47.472 119.694 47.6 119.582 47.768C119.478 47.928 119.426 48.128 119.426 48.368C119.426 48.728 119.554 49.016 119.81 49.232C120.066 49.44 120.41 49.544 120.842 49.544C121.426 49.544 121.922 49.372 122.33 49.028C122.738 48.676 122.942 48.216 122.942 47.648V46.64ZM129.957 50H129.201V47.408H127.665L125.493 50H124.509L126.801 47.384C126.241 47.344 125.793 47.172 125.457 46.868C125.129 46.556 124.965 46.136 124.965 45.608C124.965 45.064 125.133 44.632 125.469 44.312C125.813 43.992 126.269 43.832 126.837 43.832H129.957V50ZM129.201 44.468H127.017C126.609 44.468 126.289 44.572 126.057 44.78C125.833 44.98 125.721 45.26 125.721 45.62C125.721 45.98 125.833 46.264 126.057 46.472C126.289 46.672 126.609 46.772 127.017 46.772H129.201V44.468ZM137.323 46.232L140.107 50H139.159L136.771 46.748L135.511 47.912V50H134.755V43.832H135.511V46.988L138.943 43.832H139.951L137.323 46.232ZM143.383 43.652C144.271 43.652 144.975 43.948 145.495 44.54C146.023 45.132 146.287 45.932 146.287 46.94C146.287 47.94 146.027 48.732 145.507 49.316C144.987 49.892 144.279 50.18 143.383 50.18C142.487 50.18 141.771 49.888 141.235 49.304C140.707 48.712 140.443 47.916 140.443 46.916C140.443 45.924 140.707 45.132 141.235 44.54C141.771 43.948 142.487 43.652 143.383 43.652ZM144.943 45.008C144.551 44.528 144.027 44.288 143.371 44.288C142.715 44.288 142.191 44.528 141.799 45.008C141.407 45.48 141.211 46.116 141.211 46.916C141.211 47.732 141.403 48.376 141.787 48.848C142.179 49.32 142.715 49.556 143.395 49.556C144.051 49.556 144.571 49.32 144.955 48.848C145.339 48.376 145.531 47.736 145.531 46.928C145.531 46.12 145.335 45.48 144.943 45.008ZM148.143 43.832V45.02C148.591 44.108 149.327 43.652 150.351 43.652C151.191 43.652 151.863 43.952 152.367 44.552C152.879 45.152 153.135 45.948 153.135 46.94C153.135 47.916 152.883 48.704 152.379 49.304C151.875 49.896 151.207 50.192 150.375 50.192C149.335 50.192 148.607 49.748 148.191 48.86V52.304H147.459V43.832H148.143ZM151.791 45.008C151.415 44.52 150.903 44.276 150.255 44.276C149.607 44.276 149.095 44.512 148.719 44.984C148.351 45.456 148.167 46.104 148.167 46.928C148.167 47.736 148.355 48.376 148.731 48.848C149.115 49.32 149.631 49.556 150.279 49.556C150.911 49.556 151.415 49.32 151.791 48.848C152.175 48.368 152.367 47.732 152.367 46.94C152.367 46.132 152.175 45.488 151.791 45.008ZM159.33 50H158.574V44.468H155.058V50H154.302V43.832H159.33V50ZM165.559 43.832L163.135 50.228C162.831 51.044 162.567 51.6 162.343 51.896C162.119 52.192 161.775 52.34 161.311 52.34C161.111 52.34 160.891 52.32 160.651 52.28V51.62C160.875 51.676 161.055 51.704 161.191 51.704C161.495 51.704 161.723 51.592 161.875 51.368C162.035 51.144 162.215 50.756 162.415 50.204C162.423 50.172 162.431 50.148 162.439 50.132C162.447 50.124 162.455 50.108 162.463 50.084C162.471 50.06 162.479 50.036 162.487 50.012C162.495 49.996 162.503 49.976 162.511 49.952L160.027 43.832H160.855L162.523 48.08C162.587 48.248 162.711 48.612 162.895 49.172C163.103 48.492 163.227 48.1 163.267 47.996L164.791 43.832H165.559ZM171.345 47.792C171.241 48.512 170.961 49.092 170.505 49.532C170.057 49.964 169.469 50.18 168.741 50.18C167.877 50.18 167.185 49.888 166.665 49.304C166.145 48.72 165.885 47.944 165.885 46.976C165.885 45.968 166.145 45.164 166.665 44.564C167.193 43.956 167.893 43.652 168.765 43.652C169.477 43.652 170.053 43.84 170.493 44.216C170.941 44.592 171.209 45.112 171.297 45.776H170.529C170.329 44.776 169.745 44.276 168.777 44.276C168.129 44.276 167.613 44.516 167.229 44.996C166.853 45.468 166.665 46.108 166.665 46.916C166.665 47.724 166.849 48.368 167.217 48.848C167.585 49.32 168.081 49.556 168.705 49.556C169.225 49.556 169.649 49.404 169.977 49.1C170.305 48.788 170.509 48.352 170.589 47.792H171.345ZM177.412 50H176.656V47.096H173.14V50H172.384V43.832H173.14V46.46H176.656V43.832H177.412V50ZM184.253 49.388V49.964C184.069 50.028 183.869 50.06 183.653 50.06C183.325 50.06 183.109 49.96 183.005 49.76C182.901 49.56 182.849 49.284 182.849 48.932C182.329 49.756 181.553 50.168 180.521 50.168C179.889 50.168 179.393 50.016 179.033 49.712C178.681 49.408 178.505 48.984 178.505 48.44C178.505 47.328 179.269 46.692 180.797 46.532C180.877 46.524 180.989 46.516 181.133 46.508C181.277 46.492 181.381 46.48 181.445 46.472C181.517 46.464 181.605 46.456 181.709 46.448C181.821 46.432 181.901 46.42 181.949 46.412C182.005 46.404 182.069 46.392 182.141 46.376C182.221 46.36 182.281 46.344 182.321 46.328C182.369 46.312 182.417 46.296 182.465 46.28C182.513 46.256 182.557 46.232 182.597 46.208C182.741 46.112 182.813 45.916 182.813 45.62C182.813 45.132 182.677 44.788 182.405 44.588C182.133 44.388 181.733 44.288 181.205 44.288C180.685 44.288 180.285 44.408 180.005 44.648C179.733 44.88 179.573 45.244 179.525 45.74H178.805C178.837 45.076 179.069 44.564 179.501 44.204C179.933 43.844 180.529 43.664 181.289 43.664C181.993 43.664 182.545 43.816 182.945 44.12C183.353 44.424 183.557 44.864 183.557 45.44V48.8C183.557 48.96 183.561 49.076 183.569 49.148C183.577 49.212 183.609 49.276 183.665 49.34C183.729 49.396 183.829 49.424 183.965 49.424C184.069 49.424 184.165 49.412 184.253 49.388ZM182.813 46.64C182.741 46.72 182.621 46.788 182.453 46.844C182.293 46.892 182.145 46.928 182.009 46.952C181.873 46.976 181.641 47.008 181.313 47.048C181.233 47.056 181.173 47.064 181.133 47.072C180.877 47.104 180.665 47.14 180.497 47.18C180.337 47.22 180.149 47.288 179.933 47.384C179.725 47.472 179.565 47.6 179.453 47.768C179.349 47.928 179.297 48.128 179.297 48.368C179.297 48.728 179.425 49.016 179.681 49.232C179.937 49.44 180.281 49.544 180.713 49.544C181.297 49.544 181.793 49.372 182.201 49.028C182.609 48.676 182.813 48.216 182.813 47.648V46.64ZM189.828 50H189.072V47.408H187.536L185.364 50H184.38L186.672 47.384C186.112 47.344 185.664 47.172 185.328 46.868C185 46.556 184.836 46.136 184.836 45.608C184.836 45.064 185.004 44.632 185.34 44.312C185.684 43.992 186.14 43.832 186.708 43.832H189.828V50ZM189.072 44.468H186.888C186.48 44.468 186.16 44.572 185.928 44.78C185.704 44.98 185.592 45.26 185.592 45.62C185.592 45.98 185.704 46.264 185.928 46.472C186.16 46.672 186.48 46.772 186.888 46.772H189.072V44.468ZM201.214 50H200.458V44.924H200.422L198.25 50H197.578L195.406 44.924H195.37V50H194.614V43.832H195.622L197.926 49.148L200.206 43.832H201.214V50ZM207.766 47.972C207.63 48.668 207.334 49.216 206.878 49.616C206.422 50.008 205.838 50.204 205.126 50.204C204.27 50.204 203.582 49.912 203.062 49.328C202.55 48.744 202.294 47.964 202.294 46.988C202.294 46.012 202.554 45.216 203.074 44.6C203.602 43.976 204.282 43.664 205.114 43.664C205.986 43.664 206.654 43.972 207.118 44.588C207.59 45.204 207.826 45.968 207.826 46.88V47.096H203.062C203.062 47.808 203.234 48.404 203.578 48.884C203.93 49.356 204.454 49.592 205.15 49.592C206.166 49.592 206.794 49.052 207.034 47.972H207.766ZM207.07 46.484C207.03 45.796 206.834 45.26 206.482 44.876C206.13 44.484 205.666 44.288 205.09 44.288C204.466 44.288 203.99 44.492 203.662 44.9C203.342 45.308 203.142 45.836 203.062 46.484H207.07ZM213.617 44.66C214.129 45.228 214.385 45.996 214.385 46.964C214.385 47.932 214.121 48.712 213.593 49.304C213.065 49.888 212.373 50.18 211.517 50.18C210.973 50.18 210.505 50.08 210.113 49.88C209.729 49.672 209.433 49.388 209.225 49.028C209.017 48.66 208.869 48.268 208.781 47.852C208.693 47.428 208.649 46.96 208.649 46.448C208.649 44.856 208.905 43.664 209.417 42.872C209.689 42.456 210.021 42.152 210.413 41.96C210.805 41.768 211.301 41.652 211.901 41.612L212.477 41.576C212.781 41.56 212.993 41.528 213.113 41.48C213.233 41.432 213.317 41.356 213.365 41.252H214.205C214.141 41.604 213.985 41.848 213.737 41.984C213.497 42.12 213.097 42.208 212.537 42.248L211.625 42.308C210.929 42.356 210.393 42.612 210.017 43.076C209.649 43.532 209.397 44.236 209.261 45.188H209.297C209.505 44.772 209.813 44.436 210.221 44.18C210.637 43.924 211.093 43.796 211.589 43.796C212.429 43.796 213.105 44.084 213.617 44.66ZM213.629 46.964C213.629 46.22 213.433 45.612 213.041 45.14C212.649 44.668 212.153 44.432 211.553 44.432C210.913 44.432 210.393 44.664 209.993 45.128C209.601 45.584 209.405 46.196 209.405 46.964C209.405 47.724 209.601 48.344 209.993 48.824C210.393 49.304 210.901 49.544 211.517 49.544C212.133 49.544 212.637 49.304 213.029 48.824C213.429 48.344 213.629 47.724 213.629 46.964ZM220.657 47.972C220.521 48.668 220.225 49.216 219.769 49.616C219.313 50.008 218.729 50.204 218.017 50.204C217.161 50.204 216.473 49.912 215.953 49.328C215.441 48.744 215.185 47.964 215.185 46.988C215.185 46.012 215.445 45.216 215.965 44.6C216.493 43.976 217.173 43.664 218.005 43.664C218.877 43.664 219.545 43.972 220.009 44.588C220.481 45.204 220.717 45.968 220.717 46.88V47.096H215.953C215.953 47.808 216.125 48.404 216.469 48.884C216.821 49.356 217.345 49.592 218.041 49.592C219.057 49.592 219.685 49.052 219.925 47.972H220.657ZM219.961 46.484C219.921 45.796 219.725 45.26 219.373 44.876C219.021 44.484 218.557 44.288 217.981 44.288C217.357 44.288 216.881 44.492 216.553 44.9C216.233 45.308 216.033 45.836 215.953 46.484H219.961ZM226.49 50H225.734V44.468H223.214L223.106 47.564C223.074 48.46 222.926 49.112 222.662 49.52C222.398 49.928 222.01 50.132 221.498 50.132C221.274 50.132 221.054 50.088 220.838 50V49.388C220.982 49.46 221.206 49.496 221.51 49.496C222.03 49.496 222.314 48.84 222.362 47.528L222.482 43.832H226.49V50ZM227.884 43.832H228.64V46.256H230.98C231.58 46.256 232.056 46.424 232.408 46.76C232.76 47.096 232.936 47.552 232.936 48.128C232.936 48.712 232.76 49.172 232.408 49.508C232.056 49.836 231.58 50 230.98 50H227.884V43.832ZM232.18 48.128C232.18 47.736 232.056 47.432 231.808 47.216C231.568 47 231.232 46.892 230.8 46.892H228.64V49.364H230.8C231.24 49.364 231.58 49.26 231.82 49.052C232.06 48.836 232.18 48.528 232.18 48.128Z" fill="#EBEBEB"/>
<path d="M95.36 31H93.2L86.74 23.76V31H84.94V16.72H86.74V23.64L93.04 16.72H95.08L88.88 23.66L95.36 31ZM95.3833 20.28H97.2633L99.5833 26.38C99.7166 26.74 99.8366 27.0867 99.9433 27.42C100.063 27.7533 100.17 28.08 100.263 28.4C100.357 28.7067 100.43 29.0067 100.483 29.3H100.563C100.643 28.9667 100.77 28.5333 100.943 28C101.117 27.4533 101.297 26.9067 101.483 26.36L103.663 20.28H105.563L100.943 32.48C100.69 33.1467 100.39 33.7267 100.043 34.22C99.7099 34.7267 99.2966 35.1133 98.8033 35.38C98.3233 35.66 97.7366 35.8 97.0433 35.8C96.7233 35.8 96.4433 35.78 96.2033 35.74C95.9633 35.7133 95.7566 35.68 95.5833 35.64V34.24C95.7299 34.2667 95.9033 34.2933 96.1033 34.32C96.3166 34.3467 96.5366 34.36 96.7633 34.36C97.1766 34.36 97.5299 34.28 97.8233 34.12C98.1299 33.9733 98.3899 33.7533 98.6033 33.46C98.8166 33.18 98.9966 32.8467 99.1433 32.46L99.7033 31.04L95.3833 20.28ZM109.799 25.52L106.099 20.28H108.099L110.859 24.32L113.599 20.28H115.579L111.879 25.52L115.779 31H113.779L110.859 26.72L107.899 31H105.919L109.799 25.52ZM119.605 20.28V24.74H125.425V20.28H127.185V31H125.425V26.22H119.605V31H117.845V20.28H119.605ZM132.239 26.82C132.239 26.94 132.232 27.1133 132.219 27.34C132.219 27.5533 132.212 27.7867 132.199 28.04C132.186 28.28 132.172 28.5133 132.159 28.74C132.146 28.9533 132.132 29.1267 132.119 29.26L137.859 20.28H140.019V31H138.379V24.68C138.379 24.4667 138.379 24.1867 138.379 23.84C138.392 23.4933 138.406 23.1533 138.419 22.82C138.432 22.4733 138.446 22.2133 138.459 22.04L132.759 31H130.579V20.28H132.239V26.82ZM142.95 33.8C143.484 33.44 143.884 33.04 144.15 32.6C144.417 32.16 144.55 31.66 144.55 31.1C144.364 31.2333 144.164 31.3 143.95 31.3C143.644 31.3 143.384 31.1933 143.17 30.98C142.957 30.7667 142.85 30.5067 142.85 30.2C142.85 29.8533 142.964 29.5667 143.19 29.34C143.43 29.1133 143.724 29 144.07 29C144.43 29 144.73 29.1467 144.97 29.44C145.224 29.72 145.35 30.0667 145.35 30.48C145.35 32.0933 144.617 33.3 143.15 34.1L142.95 33.8ZM167.717 20.28V31H153.177V20.28H154.937V29.52H159.557V20.28H161.317V29.52H165.957V20.28H167.717ZM177.485 20.28H179.405L174.825 25.44L179.785 31H177.745L172.905 25.56V31H171.145V20.28H172.905V25.48L177.485 20.28ZM185.791 20.1C187.098 20.1 188.065 20.3867 188.691 20.96C189.318 21.5333 189.631 22.4467 189.631 23.7V31H188.351L188.011 29.48H187.931C187.625 29.8667 187.305 30.1933 186.971 30.46C186.651 30.7133 186.278 30.9 185.851 31.02C185.438 31.14 184.931 31.2 184.331 31.2C183.691 31.2 183.111 31.0867 182.591 30.86C182.085 30.6333 181.685 30.2867 181.391 29.82C181.098 29.34 180.951 28.74 180.951 28.02C180.951 26.9533 181.371 26.1333 182.211 25.56C183.051 24.9733 184.345 24.6533 186.091 24.6L187.911 24.54V23.9C187.911 23.0067 187.718 22.3867 187.331 22.04C186.945 21.6933 186.398 21.52 185.691 21.52C185.131 21.52 184.598 21.6067 184.091 21.78C183.585 21.94 183.111 22.1267 182.671 22.34L182.131 21.02C182.598 20.7667 183.151 20.5533 183.791 20.38C184.431 20.1933 185.098 20.1 185.791 20.1ZM186.311 25.82C184.978 25.8733 184.051 26.0867 183.531 26.46C183.025 26.8333 182.771 27.36 182.771 28.04C182.771 28.64 182.951 29.08 183.311 29.36C183.685 29.64 184.158 29.78 184.731 29.78C185.638 29.78 186.391 29.5333 186.991 29.04C187.591 28.5333 187.891 27.76 187.891 26.72V25.76L186.311 25.82ZM199.342 20.12C200.409 20.2133 201.336 20.4933 202.122 20.96C202.922 21.4267 203.542 22.0533 203.982 22.84C204.422 23.6267 204.642 24.56 204.642 25.64C204.642 26.72 204.429 27.66 204.002 28.46C203.576 29.2467 202.969 29.8733 202.182 30.34C201.396 30.7933 200.449 31.0667 199.342 31.16V35.8H197.622V31.16C196.569 31.0667 195.642 30.7933 194.842 30.34C194.042 29.8733 193.422 29.2467 192.982 28.46C192.542 27.66 192.322 26.72 192.322 25.64C192.322 24.5467 192.536 23.6067 192.962 22.82C193.389 22.02 194.002 21.3933 194.802 20.94C195.602 20.4733 196.562 20.2 197.682 20.12V15.8H199.342V20.12ZM197.682 21.58C196.869 21.66 196.202 21.8667 195.682 22.2C195.162 22.5333 194.776 22.9867 194.522 23.56C194.282 24.1333 194.162 24.8267 194.162 25.64C194.162 26.44 194.282 27.1333 194.522 27.72C194.776 28.2933 195.162 28.7533 195.682 29.1C196.202 29.4333 196.869 29.64 197.682 29.72V21.58ZM199.342 29.72C200.142 29.6267 200.796 29.4133 201.302 29.08C201.822 28.7467 202.202 28.2933 202.442 27.72C202.696 27.1333 202.822 26.44 202.822 25.64C202.822 24.84 202.696 24.1533 202.442 23.58C202.189 23.0067 201.802 22.5533 201.282 22.22C200.776 21.8867 200.129 21.68 199.342 21.6V29.72ZM207.434 31V20.28H209.194V24.68H211.974C212.908 24.68 213.674 24.7933 214.274 25.02C214.874 25.2467 215.321 25.5867 215.614 26.04C215.908 26.48 216.054 27.04 216.054 27.72C216.054 28.3867 215.908 28.9667 215.614 29.46C215.334 29.9533 214.888 30.3333 214.274 30.6C213.674 30.8667 212.881 31 211.894 31H207.434ZM211.734 29.58C212.494 29.58 213.114 29.4533 213.594 29.2C214.074 28.9333 214.314 28.4733 214.314 27.82C214.314 27.1667 214.094 26.7267 213.654 26.5C213.214 26.26 212.581 26.14 211.754 26.14H209.194V29.58H211.734ZM217.834 31V20.28H219.594V31H217.834Z" fill="#EBEBEB"/>
<path d="M9.84375 44.8438C9.19478 44.8438 8.56039 45.0362 8.02079 45.3967C7.48119 45.7573 7.06062 46.2698 6.81227 46.8693C6.56392 47.4689 6.49894 48.1286 6.62555 48.7651C6.75216 49.4016 7.06467 49.9863 7.52356 50.4452C7.98245 50.9041 8.56711 51.2166 9.20361 51.3432C9.84011 51.4698 10.4999 51.4048 11.0994 51.1565C11.699 50.9081 12.2115 50.4876 12.572 49.948C12.9326 49.4084 13.125 48.774 13.125 48.125C13.124 47.2551 12.778 46.421 12.1629 45.8059C11.5477 45.1907 10.7137 44.8447 9.84375 44.8438ZM9.84375 49.2188C9.62743 49.2188 9.41596 49.1546 9.2361 49.0344C9.05623 48.9142 8.91604 48.7434 8.83326 48.5436C8.75047 48.3437 8.72881 48.1238 8.77102 47.9116C8.81322 47.6995 8.91739 47.5046 9.07035 47.3516C9.22332 47.1986 9.4182 47.0945 9.63037 47.0523C9.84254 47.0101 10.0625 47.0317 10.2623 47.1145C10.4622 47.1973 10.633 47.3375 10.7532 47.5173C10.8734 47.6972 10.9375 47.9087 10.9375 48.125C10.9372 48.415 10.8218 48.693 10.6168 48.898C10.4117 49.1031 10.1337 49.2184 9.84375 49.2188Z" fill="#EBEBEB"/>
<path d="M51.4063 44.8438C50.7573 44.8438 50.1229 45.0362 49.5833 45.3967C49.0437 45.7573 48.6231 46.2698 48.3748 46.8693C48.1264 47.4689 48.0614 48.1286 48.188 48.7651C48.3147 49.4016 48.6272 49.9863 49.0861 50.4452C49.5449 50.9041 50.1296 51.2166 50.7661 51.3432C51.4026 51.4698 52.0624 51.4048 52.6619 51.1565C53.2615 50.9081 53.774 50.4876 54.1345 49.948C54.4951 49.4084 54.6875 48.774 54.6875 48.125C54.6865 47.2551 54.3405 46.421 53.7254 45.8059C53.1102 45.1907 52.2762 44.8447 51.4063 44.8438ZM51.4063 49.2188C51.1899 49.2188 50.9785 49.1546 50.7986 49.0344C50.6187 48.9142 50.4785 48.7434 50.3958 48.5436C50.313 48.3437 50.2913 48.1238 50.3335 47.9116C50.3757 47.6995 50.4799 47.5046 50.6329 47.3516C50.7858 47.1986 50.9807 47.0945 51.1929 47.0523C51.405 47.0101 51.625 47.0317 51.8248 47.1145C52.0247 47.1973 52.1955 47.3375 52.3157 47.5173C52.4359 47.6972 52.5 47.9087 52.5 48.125C52.4997 48.415 52.3843 48.693 52.1793 48.898C51.9742 49.1031 51.6962 49.2184 51.4063 49.2188Z" fill="#EBEBEB"/>
<path d="M59.0625 48.125C59.0625 47.1086 58.8601 46.1024 58.4672 45.165C58.0742 44.2276 57.4985 43.3779 56.7737 42.6653C56.0489 41.9528 55.1895 41.3916 54.2456 41.0147C53.3016 40.6378 52.2921 40.4526 51.2758 40.4699C47.1261 40.5392 43.75 44.0217 43.75 48.233V51.9074C40.7538 51.0918 36.384 50.3125 30.625 50.3125C24.866 50.3125 20.4962 51.0918 17.5 51.9074V48.125C17.5 47.0946 17.292 46.0747 16.8884 45.1266C16.4849 44.1784 15.8941 43.3215 15.1514 42.6071C14.4088 41.8928 13.5296 41.3357 12.5665 40.9692C11.6034 40.6028 10.5762 40.4345 9.54652 40.4745C7.62231 40.5556 5.79872 41.3564 4.4369 42.7182C3.07507 44.08 2.27432 45.9036 2.19324 47.8278C2.12024 49.7187 2.74973 51.5698 3.96039 53.0242C5.17105 54.4786 6.87719 55.4334 8.75 55.7046V60.1563C8.7513 61.3162 9.21265 62.4282 10.0328 63.2484C10.853 64.0686 11.9651 64.53 13.125 64.5313V67.8125C13.125 68.1026 13.2402 68.3808 13.4453 68.5859C13.6505 68.791 13.9287 68.9063 14.2187 68.9063H17.5C17.7031 68.9063 17.9022 68.8497 18.075 68.7429C18.2477 68.6362 18.3874 68.4834 18.4782 68.3017L20.3634 64.5313H40.8866L42.7718 68.3017C42.8626 68.4834 43.0022 68.6362 43.175 68.7429C43.3478 68.8497 43.5469 68.9063 43.75 68.9063H47.0312C47.3213 68.9063 47.5995 68.791 47.8046 68.5859C48.0098 68.3808 48.125 68.1026 48.125 67.8125V64.5313C49.2849 64.53 50.397 64.0686 51.2171 63.2484C52.0373 62.4282 52.4987 61.3162 52.5 60.1563V55.7033C54.3213 55.438 55.9863 54.5264 57.1912 53.1351C58.396 51.7438 59.0602 49.9655 59.0625 48.125ZM16.8241 66.7188H15.3125V64.5313H17.9178L16.8241 66.7188ZM45.9375 66.7188H44.4259L43.3322 64.5313H45.9375V66.7188ZM51.4062 53.5938C51.1162 53.5938 50.838 53.709 50.6328 53.9141C50.4277 54.1192 50.3125 54.3974 50.3125 54.6875V60.1563C50.3118 60.7362 50.0811 61.2922 49.671 61.7023C49.2609 62.1124 48.7049 62.3431 48.125 62.3438H13.125C12.545 62.3431 11.989 62.1124 11.579 61.7023C11.1689 61.2922 10.9382 60.7362 10.9375 60.1563V54.6875C10.9375 54.3974 10.8223 54.1192 10.6171 53.9141C10.412 53.709 10.1338 53.5938 9.84375 53.5938C9.10755 53.5938 8.37893 53.4452 7.70155 53.1568C7.02418 52.8684 6.41201 52.4463 5.90173 51.9156C5.39144 51.3849 4.99356 50.7567 4.73192 50.0686C4.47028 49.3804 4.35027 48.6466 4.3791 47.9109C4.43705 46.5371 5.00878 45.2352 5.98107 44.2629C6.95335 43.2906 8.2553 42.7189 9.6291 42.6609C10.3647 42.632 11.0986 42.752 11.7868 43.0135C12.475 43.2751 13.1032 43.6729 13.6339 44.1832C14.1646 44.6934 14.5869 45.3055 14.8753 45.9829C15.1637 46.6602 15.3124 47.3888 15.3125 48.125V52.5821C13.5883 53.1836 12.6823 53.6816 12.5888 53.7342L13.6589 55.6421C13.7153 55.6107 19.4404 52.5 30.625 52.5C41.8095 52.5 47.5346 55.6107 47.5888 55.6409L48.6612 53.7342C48.5677 53.6816 47.6617 53.1831 45.9375 52.5821V48.233C45.9375 45.208 48.3487 42.7066 51.3123 42.6571C52.0344 42.6446 52.7518 42.7752 53.4231 43.0415C54.0944 43.3077 54.7064 43.7043 55.2236 44.2083C55.7408 44.7123 56.1531 45.3137 56.4367 45.9779C56.7202 46.6421 56.8694 47.3559 56.8756 48.0781C56.8818 48.8002 56.7449 49.5165 56.4728 50.1854C56.2007 50.8544 55.7988 51.4628 55.2903 51.9757C54.7818 52.4885 54.1768 52.8955 53.5101 53.1732C52.8435 53.4509 52.1284 53.5939 51.4062 53.5938Z" fill="#EBEBEB"/>
<path d="M10.9375 32.8125C10.9382 32.2325 11.1689 31.6766 11.579 31.2665C11.9891 30.8564 12.545 30.6257 13.125 30.625H48.125C48.705 30.6257 49.261 30.8564 49.671 31.2665C50.0811 31.6766 50.3118 32.2325 50.3125 32.8125V38.2812H52.5V32.8125C52.4987 31.6526 52.0373 30.5405 51.2172 29.7203C50.397 28.9002 49.2849 28.4388 48.125 28.4375H13.125C11.9651 28.4388 10.853 28.9002 10.0328 29.7203C9.21266 30.5405 8.7513 31.6526 8.75 32.8125V38.2812H10.9375V32.8125Z" fill="#EBEBEB"/>
<path d="M24.0625 35H26.25V37.1875H24.0625V35Z" fill="#EBEBEB"/>
<path d="M29.5312 40.4688H31.7188V42.6562H29.5312V40.4688Z" fill="#EBEBEB"/>
<path d="M18.5938 40.4688H20.7812V42.6562H18.5938V40.4688Z" fill="#EBEBEB"/>
<path d="M24.0625 45.9375H26.25V48.125H24.0625V45.9375Z" fill="#EBEBEB"/>
<path d="M35 35H37.1875V37.1875H35V35Z" fill="#EBEBEB"/>
<path d="M40.4688 40.4688H42.6562V42.6562H40.4688V40.4688Z" fill="#EBEBEB"/>
<path d="M35 45.9375H37.1875V48.125H35V45.9375Z" fill="#EBEBEB"/>
<path d="M63.4375 1.09375H32.8125C31.6526 1.09505 30.5405 1.55641 29.7203 2.3766C28.9002 3.19679 28.4388 4.30883 28.4375 5.46875V6.5625H30.625V5.46875C30.6257 4.8888 30.8564 4.3328 31.2665 3.92271C31.6766 3.51263 32.2325 3.28194 32.8125 3.28125H47.0312V26.25H49.2188V3.28125H63.4375C64.0175 3.28194 64.5735 3.51263 64.9835 3.92271C65.3936 4.3328 65.6243 4.8888 65.625 5.46875V60.1562C65.6243 60.7362 65.3936 61.2922 64.9835 61.7023C64.5735 62.1124 64.0175 62.3431 63.4375 62.3438H53.5938V64.5312H56.1991L58.0843 68.3017C58.1751 68.4833 58.3147 68.6361 58.4875 68.7429C58.6603 68.8497 58.8594 68.9062 59.0625 68.9062H62.3438C62.6338 68.9062 62.912 68.791 63.1171 68.5859C63.3223 68.3808 63.4375 68.1026 63.4375 67.8125V64.5312C64.5974 64.5299 65.7095 64.0686 66.5297 63.2484C67.3498 62.4282 67.8112 61.3162 67.8125 60.1562V5.46875C67.8112 4.30883 67.3498 3.19679 66.5297 2.3766C65.7095 1.55641 64.5974 1.09505 63.4375 1.09375ZM61.25 66.7188H59.7384L58.6447 64.5312H61.25V66.7188Z" fill="#EBEBEB"/>
<path d="M9.84374 24.0625H19.6875V26.25H21.875V24.0625H31.7187C31.87 24.0625 32.0197 24.0311 32.1582 23.9703C32.2968 23.9095 32.4212 23.8206 32.5236 23.7093C32.626 23.598 32.7043 23.4666 32.7533 23.3235C32.8024 23.1803 32.8212 23.0286 32.8087 22.8778L31.7149 9.75283C31.6921 9.47945 31.5674 9.22461 31.3655 9.03886C31.1636 8.85311 30.8993 8.75001 30.625 8.75H21.875V6.5625H19.6875V8.75H10.9375C10.6632 8.75001 10.3988 8.85311 10.197 9.03886C9.99508 9.22461 9.87037 9.47945 9.84757 9.75283L8.75382 22.8778C8.74124 23.0286 8.76008 23.1803 8.80914 23.3235C8.85821 23.4666 8.93643 23.598 9.03887 23.7093C9.1413 23.8206 9.26572 23.9095 9.40426 23.9703C9.5428 24.0311 9.69245 24.0625 9.84374 24.0625ZM11.9439 10.9375H29.6186L30.5301 21.875H11.0324L11.9439 10.9375Z" fill="#EBEBEB"/>
</g>
<defs>
<clipPath id="clip0_2047_522">
<rect width="240" height="70" fill="white"/>
</clipPath>
</defs>
</svg>
