<?xml version="1.0" standalone="no"?>
<!DOCTYPE svg PUBLIC "-//W3C//DTD SVG 20010904//EN"
 "http://www.w3.org/TR/2001/REC-SVG-20010904/DTD/svg10.dtd">
<svg version="1.0" xmlns="http://www.w3.org/2000/svg"
 width="560.000000pt" height="560.000000pt" viewBox="0 0 560.000000 560.000000"
 preserveAspectRatio="xMidYMid meet">
<metadata>
Created by potrace 1.14, written by Peter Selinger 2001-2017
</metadata>
<g transform="translate(0.000000,560.000000) scale(0.100000,-0.100000)"
fill="#000000" stroke="none">
<path d="M2473 5506 c-154 -49 -243 -168 -251 -339 l-4 -88 88 3 89 3 5 77 c8
117 59 171 173 183 34 3 303 5 597 3 l535 -3 3 -917 2 -918 85 0 85 0 2 918 3
917 545 3 c300 2 568 0 597 -3 60 -7 108 -36 140 -84 l23 -34 0 -2239 c0
-2509 7 -2283 -73 -2336 l-41 -27 -423 -3 -423 -3 0 -84 0 -85 105 0 105 0 84
-169 c48 -95 93 -172 103 -176 27 -11 223 -19 287 -11 97 13 100 19 106 197
l5 154 53 7 c29 4 74 19 100 32 59 30 135 110 165 173 l22 48 0 2275 0 2275
-33 67 c-38 77 -92 130 -171 167 l-56 26 -1295 2 c-1051 1 -1303 -1 -1337 -11z
m2367 -5146 l0 -90 -58 0 -58 0 -41 84 c-23 46 -39 87 -36 90 4 3 48 6 100 6
l93 0 0 -90z"/>
<path d="M1520 4995 l0 -85 -355 0 c-389 0 -402 -2 -423 -57 -10 -27 -92 -982
-92 -1070 0 -105 -9 -103 470 -103 l400 0 0 -85 0 -85 85 0 84 0 3 83 3 82
413 5 414 5 24 28 c13 15 24 36 24 45 0 72 -92 1086 -99 1100 -25 47 -25 47
-410 52 l-366 5 -3 83 -3 82 -84 0 -85 0 0 -85z m828 -672 c18 -225 35 -420
38 -435 l6 -28 -781 0 c-737 0 -781 1 -781 18 0 9 16 204 35 432 19 228 35
416 35 418 0 1 319 2 708 2 l708 0 32 -407z"/>
<path d="M869 3307 c-100 -41 -152 -94 -201 -202 -21 -48 -22 -62 -23 -305 l0
-255 85 0 85 0 5 245 c5 260 9 279 58 323 52 47 9 46 1517 46 1508 0 1465 1
1517 -46 49 -44 53 -63 58 -323 l5 -245 83 0 84 0 -1 260 -2 260 -28 62 c-36
76 -96 137 -170 172 l-56 26 -1480 2 -1480 3 -56 -23z"/>
<path d="M1870 2720 l0 -91 88 3 87 3 0 85 0 85 -87 3 -88 3 0 -91z"/>
<path d="M2750 2720 l0 -90 85 0 85 0 0 90 0 90 -85 0 -85 0 0 -90z"/>
<path d="M582 2350 c-111 -29 -187 -74 -278 -165 -61 -60 -90 -99 -118 -155
-175 -359 20 -771 412 -870 l42 -11 0 -167 c0 -196 10 -275 41 -340 48 -97
161 -180 260 -190 l47 -4 4 -149 c3 -147 3 -149 31 -176 26 -27 30 -28 165
-31 210 -6 199 -12 302 188 l85 165 820 0 820 0 85 -165 c103 -200 93 -194
302 -188 128 3 138 5 162 27 25 23 26 28 28 175 l3 151 52 6 c106 13 213 92
263 194 24 48 25 60 28 272 3 246 -1 233 72 248 19 4 71 24 115 45 144 69 258
197 312 352 36 101 39 269 6 373 -62 194 -214 346 -408 408 -93 29 -263 31
-345 3 -195 -66 -334 -196 -408 -384 -25 -64 -26 -78 -30 -284 -2 -120 -7
-218 -10 -218 -4 0 -68 13 -142 30 -558 122 -1252 122 -1810 0 -74 -17 -138
-30 -142 -30 -5 0 -8 88 -8 196 0 223 -9 276 -68 389 -52 100 -164 209 -263
258 -137 67 -287 83 -427 47z m290 -181 c73 -24 129 -61 185 -122 94 -102 113
-176 113 -443 l0 -202 -42 -16 c-102 -40 -168 -71 -168 -80 0 -5 17 -40 37
-78 27 -48 42 -68 53 -64 8 3 53 21 100 40 209 86 499 150 850 187 148 16 642
16 790 0 351 -37 641 -101 850 -187 47 -19 92 -37 100 -40 11 -4 26 16 53 64
20 38 37 73 37 78 0 9 -66 40 -167 80 l-43 16 0 202 c0 223 7 265 61 365 40
77 113 144 199 185 84 39 217 48 301 21 120 -39 217 -126 272 -242 30 -63 32
-75 32 -173 0 -85 -5 -116 -23 -160 -62 -155 -205 -262 -370 -277 -46 -4 -72
-12 -91 -29 l-26 -22 -5 -270 -5 -270 -30 -38 c-17 -20 -46 -45 -65 -55 -33
-18 -91 -19 -1475 -19 -1384 0 -1442 1 -1475 19 -19 10 -48 35 -65 55 l-30 38
-5 270 -5 270 -28 24 c-19 16 -40 24 -65 24 -93 0 -207 46 -279 113 -99 91
-144 192 -144 322 0 98 19 163 69 241 56 86 139 150 235 179 67 21 197 18 269
-6z m498 -1729 c0 -6 -18 -46 -40 -90 l-40 -80 -60 0 -60 0 0 83 c0 46 3 87 7
90 11 11 193 8 193 -3z m2248 -82 l3 -88 -60 0 -61 0 -40 80 c-22 44 -40 84
-40 90 0 7 34 10 98 8 l97 -3 3 -87z"/>
<path d="M641 2003 c-64 -23 -134 -97 -156 -162 -41 -126 20 -268 140 -322 86
-40 218 -17 289 49 68 64 97 202 62 287 -54 128 -207 196 -335 148z m140 -176
c46 -35 47 -101 2 -137 -73 -57 -172 25 -129 108 9 17 21 32 28 35 24 10 83 6
99 -6z"/>
<path d="M3979 2006 c-82 -29 -140 -84 -168 -159 -31 -83 0 -218 65 -279 71
-66 203 -89 289 -49 82 37 142 123 152 216 19 180 -170 331 -338 271z m138
-188 c52 -49 14 -148 -57 -148 -43 0 -90 47 -90 90 0 70 95 107 147 58z"/>
<path d="M1432 2283 l3 -88 85 0 85 0 3 88 3 87 -91 0 -91 0 3 -87z"/>
<path d="M2312 2283 l3 -88 80 0 80 0 3 88 3 87 -86 0 -86 0 3 -87z"/>
<path d="M3182 2283 l3 -88 85 0 85 0 3 88 3 87 -91 0 -91 0 3 -87z"/>
<path d="M1870 1845 l0 -86 88 3 87 3 0 80 0 80 -87 3 -88 3 0 -86z"/>
<path d="M2750 1845 l0 -85 85 0 85 0 0 85 0 85 -85 0 -85 0 0 -85z"/>
</g>
</svg>
