<svg fill="none" xmlns="http://www.w3.org/2000/svg" viewBox="0 0 69 70">
  <g clip-path="url(#a)" fill="#323232">
    <path d="M8.656 44.75a3.28 3.28 0 1 0 0 6.562 3.28 3.28 0 0 0 0-6.562Zm0 4.375a1.094 1.094 0 1 1 0-2.187 1.094 1.094 0 0 1 0 2.187ZM50.219 44.75a3.28 3.28 0 1 0 0 6.562 3.28 3.28 0 0 0 0-6.562Zm0 4.375a1.093 1.093 0 1 1 0-2.187 1.093 1.093 0 0 1 0 2.187Z"/>
    <path d="M57.875 48.031a7.656 7.656 0 0 0-7.787-7.655c-4.15.07-7.526 3.552-7.526 7.763v3.675c-2.996-.816-7.365-1.595-13.124-1.595-5.76 0-10.13.779-13.125 1.595V48.03a7.656 7.656 0 0 0-7.954-7.65 7.684 7.684 0 0 0-7.353 7.353 7.66 7.66 0 0 0 6.556 7.877v4.452a4.38 4.38 0 0 0 4.375 4.374v3.282a1.094 1.094 0 0 0 1.094 1.094h3.281a1.094 1.094 0 0 0 .979-.605l1.885-3.77h20.523l1.885 3.77a1.094 1.094 0 0 0 .978.605h3.282a1.093 1.093 0 0 0 1.093-1.094v-3.281a4.38 4.38 0 0 0 4.376-4.376V55.61a7.668 7.668 0 0 0 6.562-7.579ZM15.636 66.625h-1.511v-2.188h2.605l-1.094 2.188Zm29.114 0h-1.512l-1.093-2.188h2.605v2.188ZM50.219 53.5a1.093 1.093 0 0 0-1.094 1.094v5.468a2.19 2.19 0 0 1-2.188 2.188h-35a2.19 2.19 0 0 1-2.187-2.188v-5.468A1.094 1.094 0 0 0 8.656 53.5a5.468 5.468 0 0 1-5.464-5.683 5.486 5.486 0 0 1 5.25-5.25 5.47 5.47 0 0 1 5.683 5.464v4.457c-1.724.602-2.63 1.1-2.724 1.152l1.07 1.908c.057-.031 5.782-3.142 16.966-3.142 11.185 0 16.91 3.11 16.964 3.141l1.073-1.907c-.094-.052-1-.55-2.724-1.152V48.14c0-3.025 2.411-5.526 5.375-5.576a5.468 5.468 0 1 1 .094 10.937ZM9.75 32.719a2.19 2.19 0 0 1 2.188-2.188h35a2.19 2.19 0 0 1 2.187 2.188v5.468h2.188V32.72a4.38 4.38 0 0 0-4.376-4.375h-35a4.38 4.38 0 0 0-4.375 4.375v5.468H9.75V32.72Z"/>
    <path d="M22.875 34.906h2.188v2.188h-2.188v-2.188ZM28.344 40.375h2.187v2.188h-2.187v-2.188ZM17.406 40.375h2.188v2.188h-2.188v-2.188ZM22.875 45.844h2.188v2.187h-2.188v-2.187ZM33.813 34.906H36v2.188h-2.188v-2.188ZM39.281 40.375h2.188v2.188H39.28v-2.188ZM33.813 45.844H36v2.187h-2.188v-2.187ZM62.25 1H31.625a4.38 4.38 0 0 0-4.375 4.375v1.094h2.188V5.375a2.19 2.19 0 0 1 2.187-2.188h14.219v22.97h2.187V3.186H62.25a2.19 2.19 0 0 1 2.188 2.188v54.688a2.19 2.19 0 0 1-2.188 2.187h-9.844v2.188h2.605l1.886 3.77a1.093 1.093 0 0 0 .978.605h3.281a1.093 1.093 0 0 0 1.094-1.094v-3.281a4.38 4.38 0 0 0 4.375-4.376V5.376A4.38 4.38 0 0 0 62.25 1Zm-2.188 65.625h-1.511l-1.094-2.188h2.605v2.188Z"/>
    <path d="M8.656 23.969H18.5v2.187h2.188V23.97h9.843a1.096 1.096 0 0 0 1.09-1.185L30.527 9.66a1.094 1.094 0 0 0-1.09-1.003h-8.75V6.47H18.5v2.187H9.75A1.094 1.094 0 0 0 8.66 9.66L7.566 22.784a1.094 1.094 0 0 0 1.09 1.185Zm2.1-13.125h17.675l.912 10.937H9.845l.911-10.937Z"/>
  </g>
  <defs>
    <clipPath id="a">
      <path fill="#fff" d="M0 0h69v70H0z"/>
    </clipPath>
  </defs>
</svg>
